<?xml version="1.0" encoding="UTF-8"?>
<!DOCTYPE svg PUBLIC "-//W3C//DTD SVG 1.1//EN" "http://www.w3.org/Graphics/SVG/1.1/DTD/svg11.dtd">
<svg xmlns="http://www.w3.org/2000/svg" version="1.1" width="1024px" height="574px" style="shape-rendering:geometricPrecision; text-rendering:geometricPrecision; image-rendering:optimizeQuality; fill-rule:evenodd; clip-rule:evenodd" xmlns:xlink="http://www.w3.org/1999/xlink">
<g><path style="opacity:1" fill="#ffffff" d="M -0.5,-0.5 C 340.833,-0.5 682.167,-0.5 1023.5,-0.5C 1023.5,190.833 1023.5,382.167 1023.5,573.5C 682.167,573.5 340.833,573.5 -0.5,573.5C -0.5,382.167 -0.5,190.833 -0.5,-0.5 Z"/></g>
<g><path style="opacity:1" fill="#000000" d="M 734.5,349.5 C 733.596,350.209 733.263,351.209 733.5,352.5C 728.167,352.5 722.833,352.5 717.5,352.5C 717.5,351.167 717.5,349.833 717.5,348.5C 722.063,319.341 723.897,290.008 723,260.5C 722.313,251.618 721.146,242.952 719.5,234.5C 712.352,233.508 705.019,233.175 697.5,233.5C 697.5,238.833 697.5,244.167 697.5,249.5C 695.25,280.501 687.084,309.834 673,337.5C 668.914,344.007 664.58,350.34 660,356.5C 658.951,357.517 657.784,357.684 656.5,357C 642.843,346.518 636.676,332.685 638,315.5C 639.623,311.29 641.623,307.29 644,303.5C 644.908,301.561 646.408,300.561 648.5,300.5C 647.554,311.827 649.72,322.493 655,332.5C 656.333,335.167 657.667,335.167 659,332.5C 670.01,311.462 676.844,289.129 679.5,265.5C 681.177,261.455 681.844,257.122 681.5,252.5C 681.872,241.501 682.206,230.501 682.5,219.5C 693.833,219.5 705.167,219.5 716.5,219.5C 713.479,186.806 701.646,157.806 681,132.5C 672.833,123 664,114.167 654.5,106C 661.167,105.333 667.833,105.333 674.5,106C 708.646,135.785 728.479,173.285 734,218.5C 739.823,262.139 739.989,305.805 734.5,349.5 Z"/></g>
<g><path style="opacity:1" fill="#000000" d="M 234.5,212.5 C 236.308,213.918 236.975,215.918 236.5,218.5C 234.346,231.064 232.679,243.73 231.5,256.5C 222.612,252.387 213.945,247.72 205.5,242.5C 203.495,239.97 202.161,237.137 201.5,234C 200.216,233.316 199.049,233.483 198,234.5C 197.817,237.365 197.317,240.031 196.5,242.5C 194.5,242.5 192.5,242.5 190.5,242.5C 190.5,317.5 190.5,392.5 190.5,467.5C 184.833,467.5 179.167,467.5 173.5,467.5C 173.5,392.833 173.5,318.167 173.5,243.5C 169.818,243.665 166.152,243.499 162.5,243C 162,242.5 161.5,242 161,241.5C 160.5,233.841 160.334,226.174 160.5,218.5C 173.031,219.462 185.531,220.795 198,222.5C 210.205,219.315 222.371,215.982 234.5,212.5 Z"/></g>
<g><path style="opacity:1" fill="#000000" d="M 599.5,215.5 C 605.979,214.509 612.646,214.176 619.5,214.5C 619.737,215.791 619.404,216.791 618.5,217.5C 612.588,215.544 606.255,214.877 599.5,215.5 Z"/></g>
<g><path style="opacity:1" fill="#000000" d="M 266.5,216.5 C 272.901,215.174 279.401,215.174 286,216.5C 294.667,233.167 303.333,249.833 312,266.5C 313.762,270.866 316.429,271.533 320,268.5C 329,251.167 338,233.833 347,216.5C 353.418,215.357 359.918,215.19 366.5,216C 355.981,235.37 345.981,255.037 336.5,275C 362.567,292.104 367.4,313.937 351,340.5C 332.95,359.369 312.45,362.536 289.5,350C 274.966,338.751 268.799,323.918 271,305.5C 274.734,291.279 283.234,281.279 296.5,275.5C 287.284,255.4 277.284,235.733 266.5,216.5 Z"/></g>
<g><path style="opacity:1" fill="#000000" d="M 599.5,215.5 C 606.255,214.877 612.588,215.544 618.5,217.5C 608.123,236.419 598.123,255.586 588.5,275C 610.673,288.194 617.507,307.027 609,331.5C 598.046,351.228 581.213,359.728 558.5,357C 530.797,348.109 519.631,329.275 525,300.5C 529.687,288.817 537.52,279.983 548.5,274C 539.225,254.616 529.558,235.449 519.5,216.5C 525.833,215.167 532.167,215.167 538.5,216.5C 547.902,234.062 557.069,251.729 566,269.5C 568,270.833 570,270.833 572,269.5C 581.448,251.603 590.615,233.603 599.5,215.5 Z"/></g>
<g><path style="opacity:1" fill="#000000" d="M 234.5,212.5 C 235.209,211.596 236.209,211.263 237.5,211.5C 237.802,214.059 237.468,216.393 236.5,218.5C 236.975,215.918 236.308,213.918 234.5,212.5 Z"/></g>
<g><path style="opacity:1" fill="#000000" d="M 474.5,336.5 C 474.5,297.5 474.5,258.5 474.5,219.5C 480.167,219.5 485.833,219.5 491.5,219.5C 491.5,264.167 491.5,308.833 491.5,353.5C 477.833,353.5 464.167,353.5 450.5,353.5C 450.5,371.5 450.5,389.5 450.5,407.5C 444.833,407.5 439.167,407.5 433.5,407.5C 433.5,389.5 433.5,371.5 433.5,353.5C 420.5,353.5 407.5,353.5 394.5,353.5C 394.5,308.833 394.5,264.167 394.5,219.5C 399.833,219.5 405.167,219.5 410.5,219.5C 410.5,258.833 410.5,298.167 410.5,337.5C 432.007,337.831 453.34,337.497 474.5,336.5 Z"/></g>
<g><path style="opacity:1" fill="#000000" d="M 783.5,219.5 C 783.333,253.835 783.5,288.168 784,322.5C 804.845,288.139 825.678,253.806 846.5,219.5C 852.167,219.5 857.833,219.5 863.5,219.5C 863.5,264.167 863.5,308.833 863.5,353.5C 858.167,353.5 852.833,353.5 847.5,353.5C 847.667,318.498 847.5,283.498 847,248.5C 846.283,249.044 845.783,249.711 845.5,250.5C 824.845,284.472 804.178,318.472 783.5,352.5C 777.872,353.495 772.206,353.829 766.5,353.5C 766.5,308.833 766.5,264.167 766.5,219.5C 772.167,219.5 777.833,219.5 783.5,219.5 Z"/></g>
<g><path style="opacity:1" fill="#000000" d="M 719.5,234.5 C 712.5,234.5 705.5,234.5 698.5,234.5C 698.821,239.695 698.487,244.695 697.5,249.5C 697.5,244.167 697.5,238.833 697.5,233.5C 705.019,233.175 712.352,233.508 719.5,234.5 Z"/></g>
<g><path style="opacity:1" fill="#000000" d="M 474.5,336.5 C 453.34,337.497 432.007,337.831 410.5,337.5C 410.5,298.167 410.5,258.833 410.5,219.5C 405.167,219.5 399.833,219.5 394.5,219.5C 394.5,264.167 394.5,308.833 394.5,353.5C 393.501,308.67 393.168,263.67 393.5,218.5C 399.5,218.5 405.5,218.5 411.5,218.5C 411.5,257.833 411.5,297.167 411.5,336.5C 432.5,336.5 453.5,336.5 474.5,336.5 Z"/></g>
<g><path style="opacity:1" fill="#000000" d="M 846.5,219.5 C 852.31,218.51 858.31,218.177 864.5,218.5C 864.832,263.67 864.499,308.67 863.5,353.5C 863.5,308.833 863.5,264.167 863.5,219.5C 857.833,219.5 852.167,219.5 846.5,219.5 Z"/></g>
<g><path style="opacity:1" fill="#000000" d="M 681.5,252.5 C 681.844,257.122 681.177,261.455 679.5,265.5C 679.77,260.972 680.437,256.639 681.5,252.5 Z"/></g>
<g><path style="opacity:1" fill="#000000" d="M 783.5,219.5 C 777.833,219.5 772.167,219.5 766.5,219.5C 766.5,264.167 766.5,308.833 766.5,353.5C 765.501,308.67 765.168,263.67 765.5,218.5C 771.69,218.177 777.69,218.51 783.5,219.5 Z"/></g>
<g><path style="opacity:1" fill="#000000" d="M 474.5,219.5 C 480.31,218.51 486.31,218.177 492.5,218.5C 492.832,263.67 492.499,308.67 491.5,353.5C 491.5,308.833 491.5,264.167 491.5,219.5C 485.833,219.5 480.167,219.5 474.5,219.5 Z"/></g>
<g><path style="opacity:1" fill="#ffffff" d="M 328.5,288.5 C 344.772,298.502 348.606,312.168 340,329.5C 331.06,340.48 319.56,344.313 305.5,341C 291.447,334.734 285.28,323.901 287,308.5C 288.472,301.044 292.305,295.21 298.5,291C 300.365,289.699 302.365,289.365 304.5,290C 308.627,297.086 312.627,304.253 316.5,311.5C 320.499,303.839 324.499,296.172 328.5,288.5 Z"/></g>
<g><path style="opacity:1" fill="#ffffff" d="M 553.5,288.5 C 554.822,288.33 555.989,288.663 557,289.5C 560.492,297.153 564.492,304.487 569,311.5C 573.171,303.824 577.337,296.158 581.5,288.5C 597.405,299.26 600.905,313.26 592,330.5C 583.039,340.716 571.873,344.216 558.5,341C 543.327,334.494 537.16,322.994 540,306.5C 542.443,298.899 546.943,292.899 553.5,288.5 Z"/></g>
<g><path style="opacity:1" fill="#000000" d="M 847.5,353.5 C 846.833,319.167 846.167,284.833 845.5,250.5C 845.783,249.711 846.283,249.044 847,248.5C 847.5,283.498 847.667,318.498 847.5,353.5 Z"/></g>
<g><path style="opacity:1" fill="#000000" d="M 196.5,242.5 C 195.081,243.451 193.415,243.784 191.5,243.5C 191.833,318.335 191.499,393.002 190.5,467.5C 190.5,392.5 190.5,317.5 190.5,242.5C 192.5,242.5 194.5,242.5 196.5,242.5 Z"/></g>
<g><path style="opacity:1" fill="#000000" d="M 717.5,348.5 C 717.5,349.833 717.5,351.167 717.5,352.5C 722.833,352.5 728.167,352.5 733.5,352.5C 733.263,351.209 733.596,350.209 734.5,349.5C 734.5,350.833 734.5,352.167 734.5,353.5C 728.5,353.5 722.5,353.5 716.5,353.5C 716.216,351.585 716.549,349.919 717.5,348.5 Z"/></g>
</svg>
