<?xml version="1.0" encoding="UTF-8"?>
<!DOCTYPE svg PUBLIC "-//W3C//DTD SVG 1.1//EN" "http://www.w3.org/Graphics/SVG/1.1/DTD/svg11.dtd">
<svg xmlns="http://www.w3.org/2000/svg" version="1.1" width="1024px" height="1024px" style="shape-rendering:geometricPrecision; text-rendering:geometricPrecision; image-rendering:optimizeQuality; fill-rule:evenodd; clip-rule:evenodd" xmlns:xlink="http://www.w3.org/1999/xlink">
<g><path style="opacity:1" fill="#ffffff" d="M -0.5,-0.5 C 340.833,-0.5 682.167,-0.5 1023.5,-0.5C 1023.5,340.833 1023.5,682.167 1023.5,1023.5C 682.167,1023.5 340.833,1023.5 -0.5,1023.5C -0.5,682.167 -0.5,340.833 -0.5,-0.5 Z"/></g>
<g><path style="opacity:1" fill="#000000" d="M 196.5,190.5 C 406.5,190.5 616.5,190.5 826.5,190.5C 826.38,326.84 826.547,463.173 827,599.5C 820.331,653.48 799.998,701.48 766,743.5C 721.616,796.235 670.782,841.401 613.5,879C 581.038,900.232 547.371,919.399 512.5,936.5C 446.361,903.789 385.361,863.622 329.5,816C 291.103,781.96 258.269,743.46 231,700.5C 211.016,666.879 199.682,630.546 197,591.5C 196.5,457.834 196.333,324.167 196.5,190.5 Z"/></g>
<g><path style="opacity:1" fill="#ffffff" d="M 767.5,228.5 C 774.167,228.5 780.833,228.5 787.5,228.5C 787.167,344.335 787.5,460.001 788.5,575.5C 790.17,601.149 786.17,625.815 776.5,649.5C 688.504,518.177 601.004,386.51 514,254.5C 426.33,387.177 338.163,519.511 249.5,651.5C 241.4,633.002 236.734,613.669 235.5,593.5C 235.5,471.833 235.5,350.167 235.5,228.5C 412.833,228.5 590.167,228.5 767.5,228.5 Z"/></g>
<g><path style="opacity:1" fill="#ffffff" d="M 767.5,227.5 C 767.5,227.833 767.5,228.167 767.5,228.5C 590.167,228.5 412.833,228.5 235.5,228.5C 235.5,350.167 235.5,471.833 235.5,593.5C 234.5,471.668 234.167,349.668 234.5,227.5C 412.167,227.5 589.833,227.5 767.5,227.5 Z"/></g>
<g><path style="opacity:1" fill="#ffffff" d="M 513.5,323.5 C 580.559,422.916 646.892,522.916 712.5,623.5C 700.197,642.968 687.697,662.301 675,681.5C 674.282,682.451 673.449,682.617 672.5,682C 619.376,600.919 566.376,519.752 513.5,438.5C 494.837,466.008 476.337,493.674 458,521.5C 457.685,522.908 458.018,524.241 459,525.5C 465.974,535.308 473.141,544.974 480.5,554.5C 491.415,538.337 502.082,522.004 512.5,505.5C 513.167,504.167 513.833,504.167 514.5,505.5C 566.743,587.238 619.576,668.571 673,749.5C 693.872,718.924 714.372,688.091 734.5,657C 736.113,656.911 737.28,657.745 738,659.5C 744.55,669.433 750.717,679.6 756.5,690C 736.206,721.805 711.873,750.472 683.5,776C 631.529,822.506 574.196,861.339 511.5,892.5C 460.758,865.811 413.091,834.645 368.5,799C 330.072,767.531 297.072,731.365 269.5,690.5C 350.859,568.149 432.193,445.816 513.5,323.5 Z"/></g>
<g><path style="opacity:1" fill="#ffffff" d="M 767.5,228.5 C 767.5,228.167 767.5,227.833 767.5,227.5C 774.5,227.5 781.5,227.5 788.5,227.5C 788.5,343.5 788.5,459.5 788.5,575.5C 787.5,460.001 787.167,344.335 787.5,228.5C 780.833,228.5 774.167,228.5 767.5,228.5 Z"/></g>
</svg>
